<?xml version="1.0" encoding="iso-8859-1"?>
<!-- Generator: Adobe Illustrator 19.0.0, SVG Export Plug-In . SVG Version: 6.00 Build 0)  -->
<svg version="1.1" id="Layer_1" xmlns="http://www.w3.org/2000/svg" xmlns:xlink="http://www.w3.org/1999/xlink" x="0px" y="0px"
	 viewBox="0 0 511.941 511.941" style="enable-background:new 0 0 511.941 511.941;" xml:space="preserve">
<polygon style="fill:#A0D468;" points="454.292,242.643 50.659,244.643 32.332,361.63 477.602,361.63 "/>
<rect x="12.001" y="365.46" style="fill:#656D78;" width="484.94" height="38.494"/>
<path style="fill:#965353;" d="M387.613,217.974l-34.309-29.997c0,0-18.342-13.982-19.686-16.326
	c-1.312-2.343-13.311-18.342-13.311-18.342l-23.497-14.998l-18.842-22.998c0,0-26.661-8.999-30.997-8.327s-2.336-9.671-12.335,3.328
	c-9.999,12.999-17.326,17.014-17.662,20.342c-0.336,3.328-3,4.656-10.999,13.327s-20.662,19.669-20.662,19.669l-22.333,22.326
	l-18.998,14.326l-21.662,22.341l-12.67,21.654l294.958-5L387.613,217.974z"/>
<ellipse style="fill:#F5F7FA;" cx="255.971" cy="320.21" rx="15.334" ry="18.08"/>
<path d="M501.287,352.271h-12.436L469.104,243.69c-0.906-5.062-5.344-8.749-10.5-8.749h-24.809c-2-1.281-4.203-2.39-6.578-3.281
	c-5.421-2.046-11.17-2.75-16.732-3c-4.874-16.029-18.592-28.497-35.73-32.215c-4.593-16.498-18.514-29.403-36.027-33.215
	c-4.593-16.498-18.513-29.403-36.026-33.199c-5.501-19.748-24.358-34.355-46.731-34.355c-22.364,0-41.229,14.607-46.729,34.355
	c-17.506,3.796-31.434,16.701-36.027,33.199c-17.506,3.812-31.434,16.717-36.027,33.215c-17.146,3.718-30.856,16.186-35.73,32.215
	c-5.562,0.25-11.303,0.953-16.732,3c-2.375,0.891-4.57,2-6.585,3.281h-24.81c-5.156,0-9.577,3.688-10.499,8.749L23.099,352.271
	H10.663C4.773,352.271,0,357.037,0,362.927v42.666c0,5.891,4.773,10.672,10.663,10.672h490.624c5.874,0,10.654-4.781,10.654-10.672
	v-42.666C511.942,357.036,507.161,352.271,501.287,352.271z M147.89,216.631c4.171,0,8.116,0.875,11.639,2.437
	c-1.688-3.25-2.632-6.89-2.632-10.733c0-10.171,6.624-18.92,16.107-22.779c2.054,2.218,20.419,21.279,44.042,21.279
	c1.531,0,3.078-0.078,4.647-0.25c5.859-0.641,10.093-5.89,9.46-11.749s-5.89-10.093-11.749-9.452
	c-10.71,1.156-20.927-5.734-26.474-10.374c0.063-13.686,12.131-24.778,27.013-24.778c4.171,0,8.116,0.859,11.639,2.406
	c-1.687-3.25-2.632-6.875-2.632-10.718c0-13.749,12.1-24.903,27.02-24.903s27.028,11.155,27.028,24.903
	c0,0.469-0.031,0.938-0.063,1.391c-4.905,4.39-13.452,9.187-26.911,8.14c-5.874-0.469-10.999,3.937-11.459,9.796
	c-0.461,5.874,3.929,11.014,9.804,11.467c1.914,0.141,3.757,0.219,5.554,0.219c23.825,0,37.324-12.514,43.447-20.388
	c9.234,3.953,15.655,12.577,15.655,22.591c0,3.843-0.953,7.468-2.641,10.718c3.516-1.563,7.468-2.422,11.64-2.422
	c14.92,0,27.027,11.14,27.027,24.904c0,3.843-0.952,7.483-2.64,10.733c3.515-1.563,7.468-2.437,11.64-2.437
	c12.436,0,22.903,7.765,26.059,18.31H121.838C124.978,224.395,135.454,216.631,147.89,216.631z M62.228,256.282h193.743h193.744
	l17.451,95.989H255.971H44.777L62.228,256.282z M490.601,394.923h-31.997c0-5.891-4.764-10.654-10.654-10.654
	s-10.655,4.764-10.655,10.654h-21.341c0-5.891-4.781-10.654-10.655-10.654c-5.905,0-10.687,4.764-10.687,10.654h-21.311
	c0-5.891-4.78-10.654-10.686-10.654c-5.875,0-10.655,4.764-10.655,10.654h-21.341c0-5.891-4.766-10.654-10.655-10.654
	s-10.655,4.764-10.655,10.654h-21.342c0-5.891-4.78-10.654-10.654-10.654c-5.898,0-10.679,4.764-10.679,10.654h-21.326
	c0-5.891-4.781-10.654-10.671-10.654s-10.663,4.764-10.663,10.654h-21.333c0-5.891-4.773-10.654-10.663-10.654
	s-10.663,4.764-10.663,10.654h-21.333c0-5.891-4.773-10.654-10.663-10.654s-10.67,4.764-10.67,10.654h-21.326
	c0-5.891-4.781-10.654-10.671-10.654s-10.663,4.764-10.663,10.654H74.656c0-5.891-4.773-10.654-10.663-10.654
	s-10.663,4.764-10.663,10.654H21.334v-21.326h10.663h447.949h10.655V394.923z"/>
<path d="M287.967,320.275c0-17.654-14.342-31.996-31.996-31.996c-17.646,0-31.996,14.342-31.996,31.996
	c0,17.623,14.35,31.996,31.996,31.996C273.625,352.271,287.967,337.898,287.967,320.275z M255.971,330.931
	c-5.882,0-10.663-4.781-10.663-10.656c0-5.889,4.781-10.67,10.663-10.67c5.883,0,10.663,4.781,10.663,10.67
	C266.634,326.15,261.854,330.931,255.971,330.931z"/>
<path d="M245.308,266.937c0,5.891,4.773,10.672,10.663,10.672c5.891,0,10.663-4.781,10.663-10.672
	c0-5.889-4.772-10.655-10.663-10.655C250.081,256.282,245.308,261.048,245.308,266.937z"/>
<path d="M233.341,286.982c4.164-4.172,4.164-10.92,0-15.076c-4.164-4.188-10.921-4.188-15.084,0c-4.164,4.156-4.164,10.904,0,15.076
	S229.178,291.154,233.341,286.982z"/>
<path d="M293.686,286.982c4.156-4.172,4.156-10.92,0-15.076c-4.156-4.188-10.921-4.172-15.092,0c-4.156,4.156-4.156,10.904,0,15.076
	C282.765,291.154,289.53,291.154,293.686,286.982z"/>
<g>
</g>
<g>
</g>
<g>
</g>
<g>
</g>
<g>
</g>
<g>
</g>
<g>
</g>
<g>
</g>
<g>
</g>
<g>
</g>
<g>
</g>
<g>
</g>
<g>
</g>
<g>
</g>
<g>
</g>
</svg>
