<?xml version="1.0" encoding="iso-8859-1"?>
<!-- Generator: Adobe Illustrator 19.0.0, SVG Export Plug-In . SVG Version: 6.00 Build 0)  -->
<svg version="1.1" id="Layer_1" xmlns="http://www.w3.org/2000/svg" xmlns:xlink="http://www.w3.org/1999/xlink" x="0px" y="0px"
	 viewBox="0 0 511.942 511.942" style="enable-background:new 0 0 511.942 511.942;" xml:space="preserve">
<rect x="109.491" y="228.191" style="fill:#656D78;" width="245.47" height="215.48"/>
<polygon style="fill:#48CFAD;" points="253.643,85.537 52.659,192.853 49.331,446.168 167.317,446.168 167.317,362.178 
	173.981,298.186 194.642,269.516 219.975,255.971 261.307,245.519 309.293,264.19 331.963,289.514 341.305,449.496 457.949,442.84 
	457.949,196.868 "/>
<polygon style="fill:#FFCE54;" points="374.457,424.17 387.956,469.166 493.944,472.665 497.444,430.17 "/>
<polygon style="fill:#F5F7FA;" points="255.964,42.199 7.992,169.512 7.992,212.179 255.971,85.537 497.444,209.507 
	497.444,165.513 "/>
<path d="M496.35,222.756c1.531,0.813,3.234,1.219,4.922,1.219c1.922,0,3.828-0.516,5.53-1.547c3.187-1.922,5.14-5.39,5.14-9.108
	v-42.683c0-3.969-2.218-7.608-5.733-9.437L260.901,33.215c-3.094-1.625-6.773-1.625-9.866,0L5.726,161.2
	C2.203,163.028,0,166.668,0,170.637v42.683c0,3.719,1.945,7.187,5.132,9.108c3.187,1.938,7.155,2.063,10.459,0.328l27.067-14.123
	v228.661H31.997c-5.898,0-10.671,4.765-10.671,10.655s4.773,10.654,10.671,10.654h138.648H341.29h29.013l3.312,13.265
	c1.188,4.749,5.438,8.077,10.344,8.077h106.642c4.905,0,9.155-3.328,10.343-8.077l10.686-42.667
	c0.781-3.188,0.063-6.562-1.952-9.155c-2.016-2.577-5.108-4.093-8.405-4.093h-31.996v-207.32L496.35,222.756z M21.326,177.105
	L255.964,54.681l234.637,122.424v18.607l-229.7-119.845c-1.547-0.813-3.242-1.219-4.937-1.219c-1.688,0-3.383,0.406-4.929,1.219
	L21.326,195.712V177.105z M181.308,437.294V330.619c0-41.152,33.488-74.648,74.656-74.648c41.16,0,74.656,33.496,74.656,74.648
	v106.675H181.308z M482.289,458.604h-90.006l-5.327-21.31h100.646L482.289,458.604z M447.95,415.953h-74.664
	c-3.28,0-6.389,1.516-8.404,4.093c-2.016,2.594-2.734,5.968-1.938,9.155l2.016,8.093h-12.999V330.619
	c0-52.916-43.058-95.99-95.997-95.99c-52.924,0-95.989,43.074-95.989,95.99v106.675H63.993v-21.341h53.322
	c5.89,0,10.663-4.781,10.663-10.655c0-5.905-4.773-10.687-10.663-10.687H63.993V197.509L255.964,97.364L447.95,197.51V415.953z"/>
<path d="M228.388,170.637l-7.538-7.53c-4.171-4.156-10.921-4.156-15.084,0c-4.164,4.155-4.164,10.905,0,15.092l3.125,3.125
	l-3.125,3.108c-4.164,4.172-4.164,10.921,0,15.077c2.078,2.093,4.812,3.124,7.538,3.124c2.734,0,5.46-1.031,7.546-3.124l7.538-7.531
	h55.158l7.546,7.531c2.078,2.093,4.813,3.124,7.531,3.124c2.733,0,5.467-1.031,7.545-3.124c4.172-4.156,4.172-10.905,0-15.077
	l-3.124-3.108l3.124-3.125c4.172-4.187,4.172-10.937,0-15.092c-4.171-4.156-10.92-4.156-15.076,0l-7.546,7.53H228.388z"/>
<g>
</g>
<g>
</g>
<g>
</g>
<g>
</g>
<g>
</g>
<g>
</g>
<g>
</g>
<g>
</g>
<g>
</g>
<g>
</g>
<g>
</g>
<g>
</g>
<g>
</g>
<g>
</g>
<g>
</g>
</svg>
