<?xml version="1.0" encoding="iso-8859-1"?>
<!-- Generator: Adobe Illustrator 19.0.0, SVG Export Plug-In . SVG Version: 6.00 Build 0)  -->
<svg version="1.1" id="Capa_1" xmlns="http://www.w3.org/2000/svg" xmlns:xlink="http://www.w3.org/1999/xlink" x="0px" y="0px"
	 viewBox="0 0 348.32 348.32" style="enable-background:new 0 0 348.32 348.32;" xml:space="preserve">
<g id="XMLID_917_">
	<g id="XMLID_918_">
		<g id="XMLID_919_">
			
				<rect id="XMLID_920_" x="114.16" y="207.889" transform="matrix(0.8321 0.5547 -0.5547 0.8321 177.0085 -24.6192)" style="fill:#6DA8D6;" width="29.999" height="144.222"/>
		</g>
		<g id="XMLID_921_">
			
				<rect id="XMLID_64_" x="204.161" y="207.889" transform="matrix(-0.8321 0.5547 -0.5547 -0.8321 556.8285 391.4059)" style="fill:#2974A8;" width="29.999" height="144.222"/>
		</g>
	</g>
	<g id="XMLID_922_">
		<g id="XMLID_923_">
			<rect id="XMLID_61_" x="29.16" style="fill:#C1E8E6;" width="290" height="250"/>
			<rect id="XMLID_926_" x="174.16" style="fill:#8EC8F0;" width="145" height="250"/>
		</g>
		<g id="XMLID_927_">
			<g id="XMLID_928_">
				<g id="XMLID_932_">
					<g id="XMLID_930_">
						<path id="XMLID_931_" style="fill:#2974A8;" d="M134.16,224.237v-26.38c62.129,0,105.521-37.968,105.521-92.331V43.971h26.38
							v61.554c0,34.714-14.041,65.722-39.538,87.311C202.61,213.085,169.808,224.237,134.16,224.237z"/>
					</g>
				</g>
				<polygon id="XMLID_936_" style="fill:#2974A8;" points="221.73,54.473 252.689,11.486 283.649,54.473 				"/>
			</g>
			<g id="XMLID_937_">
				<polygon id="XMLID_938_" style="fill:#6DA8D6;" points="202.674,115.515 188.417,101.258 174.16,115.515 159.903,101.258 
					145.646,115.515 159.903,129.772 145.646,144.029 159.903,158.286 174.16,144.029 188.417,158.286 202.674,144.029 
					188.417,129.772 				"/>
				<polygon id="XMLID_939_" style="fill:#2974A8;" points="202.674,115.515 188.417,101.258 174.16,115.515 174.16,144.029 
					188.417,158.286 202.674,144.029 188.417,129.772 				"/>
			</g>
			<g id="XMLID_940_">
				<circle id="XMLID_941_" style="fill:#6DA8D6;" cx="174.16" cy="57.291" r="26.38"/>
				<path id="XMLID_942_" style="fill:#2974A8;" d="M174.16,30.91v52.761c14.569,0,26.38-11.811,26.38-26.38
					C200.54,42.721,188.73,30.91,174.16,30.91z"/>
			</g>
			<g id="XMLID_943_">
				<polygon id="XMLID_944_" style="fill:#6DA8D6;" points="124.16,115.515 109.903,101.258 95.646,115.515 81.389,101.258 
					67.132,115.515 81.389,129.772 67.132,144.029 81.389,158.286 95.646,144.029 109.903,158.286 124.16,144.029 109.903,129.772 
									"/>
				<polygon id="XMLID_945_" style="fill:#6DA8D6;" points="124.16,115.515 109.903,101.258 95.646,115.515 95.646,144.029 
					109.903,158.286 124.16,144.029 109.903,129.772 				"/>
			</g>
			<g id="XMLID_946_">
				<polygon id="XMLID_947_" style="fill:#6DA8D6;" points="124.16,195.743 109.903,181.486 95.646,195.743 81.389,181.486 
					67.132,195.743 81.389,210 67.132,224.257 81.389,238.514 95.646,224.257 109.903,238.514 124.16,224.257 109.903,210 				"/>
				<polygon id="XMLID_948_" style="fill:#6DA8D6;" points="124.16,195.743 109.903,181.486 95.646,195.743 95.646,224.257 
					109.903,238.514 124.16,224.257 109.903,210 				"/>
			</g>
			<g id="XMLID_949_">
				<circle id="XMLID_950_" style="fill:#6DA8D6;" cx="95.646" cy="57.291" r="26.38"/>
				<path id="XMLID_951_" style="fill:#6DA8D6;" d="M95.646,30.91v52.761c14.569,0,26.38-11.811,26.38-26.38
					C122.026,42.721,110.216,30.91,95.646,30.91z"/>
			</g>
		</g>
	</g>
</g>
<g>
</g>
<g>
</g>
<g>
</g>
<g>
</g>
<g>
</g>
<g>
</g>
<g>
</g>
<g>
</g>
<g>
</g>
<g>
</g>
<g>
</g>
<g>
</g>
<g>
</g>
<g>
</g>
<g>
</g>
</svg>
