<?xml version="1.0" encoding="iso-8859-1"?>
<!-- Generator: Adobe Illustrator 19.0.0, SVG Export Plug-In . SVG Version: 6.00 Build 0)  -->
<svg version="1.1" id="Layer_1" xmlns="http://www.w3.org/2000/svg" xmlns:xlink="http://www.w3.org/1999/xlink" x="0px" y="0px"
	 viewBox="0 0 460.001 460.001" style="enable-background:new 0 0 460.001 460.001;" xml:space="preserve">
<g id="XMLID_2790_">
	<path id="XMLID_1145_" style="fill:#8E604C;" d="M316.548,38.738l-43.426,45.616c-6.428,6.752-13.825,12.511-21.949,17.085
		l-70.04,39.447l-32.422-46.133l60.842-52.535c7.056-6.093,14.98-11.102,23.511-14.863l57.63-25.405
		c10-4.408,21.722-1.145,28.006,7.796l0,0C324.984,18.689,324.083,30.823,316.548,38.738z"/>
	<path id="XMLID_919_" style="fill:#7F5141;" d="M312.047,43.456l-38.935,40.898c-6.428,6.752-13.825,12.511-21.948,17.085
		l-70.04,39.447l-32.422-46.133l20.173-17.418h38.254l45.34-21.25c8.442-3.957,17.425-6.635,26.655-7.947L312.047,43.456z"/>
	<path id="XMLID_1148_" style="fill:#C18A6F;" d="M292.121,36.423l-21.362,20.909c-3.162,3.095-6.672,5.902-10.415,8.328
		l-20.953,13.582c-6.426,4.165-13.658,4.207-16.73,0.097c-3.072-4.11-0.983-11.035,4.831-16.018l18.959-16.249
		c3.387-2.902,7.073-5.474,10.937-7.63l26.103-14.565c4.529-2.527,9.3-2.327,11.397,0.479
		C296.986,28.163,295.828,32.795,292.121,36.423z"/>
	<path id="XMLID_1141_" style="fill:#B57961;" d="M280.325,47.967l-9.568,9.365c-3.162,3.095-6.672,5.902-10.415,8.328
		l-20.953,13.582c-6.425,4.165-13.658,4.207-16.73,0.097c-1.787-2.392-1.817-5.736-0.393-9.096l30.209-14.159
		c8.442-3.957,17.425-6.635,26.656-7.947L280.325,47.967z"/>
	<path id="XMLID_1109_" style="fill:#966950;" d="M460,420.001v20c0,11.046-8.954,20-20,20H270l-74.97-37.485
		C130.66,390.331,90,324.541,90,252.575V120.001l180,110l0,0C374.934,230.001,460,315.067,460,420.001z"/>
	<path id="XMLID_1995_" style="fill:#7F513D;" d="M460,420.001v20c0,11.046-8.954,20-20,20H340h-10H220c-11.046,0-20-8.954-20-20
		l0,0c0-22.091,17.909-40,40-40h82.263c4.694,0,8.718-3.274,9.761-7.85c8.112-35.587,39.932-62.15,77.976-62.15h27.366
		C451.802,356.79,460,387.437,460,420.001z"/>
	<path id="XMLID_1102_" style="fill:#966950;" d="M460,430.001v10c0,11.046-8.954,20-20,20h-10c-16.569,0-30-13.432-30-30l0,0
		c0-16.568,13.431-30,30-30S460,413.433,460,430.001z"/>
	<path id="XMLID_1946_" style="fill:#A57358;" d="M440,409.91c0,0.03,0,0.061,0,0.091v10c0,11.046-8.954,20-20,20h-10
		c-0.03,0-0.061,0-0.091,0c-5.425-0.017-9.893-4.485-9.909-9.909c0-0.03,0-0.061,0-0.091c0-16.568,13.431-30,30-30
		c0.03,0,0.061,0,0.091,0C435.515,400.018,439.984,404.486,440,409.91z"/>
	<path id="XMLID_1152_" style="fill:#A57358;" d="M417.304,300.001c-34.84-42.716-87.883-70-147.304-70l0,0l-40-24.444v84.444v10
		v26.554c0,24.188,19.689,43.755,43.876,43.608c2.534-0.016,5.038-0.03,7.468-0.043c14.823-0.081,28.449-7.773,36.548-20.188
		c6.269-9.609,14.036-18.26,23.042-25.537c19.469-15.73,43.998-24.394,69.066-24.394H417.304z"/>
	<path id="XMLID_1201_" style="fill:#7F513D;" d="M200,187.223L90,120.001v132.574c0,25.141,4.975,49.521,14.176,71.985L74,400.001
		H40c-22.091,0-40,17.909-40,40l0,0c0,11.046,8.954,20,20,20h30h39.689H90v-0.012c12.142-0.126,23.026-7.554,27.543-18.847
		l41.942-104.855c1.519-3.797,5.196-6.286,9.285-6.286H170c16.569,0,30-13.432,30-30V187.223z"/>
	<path id="XMLID_1197_" style="fill:#845441;" d="M219.472,199.123c-4.544,39.83-38.438,70.878-79.464,70.878H90.803
		C90.274,264.243,90,258.43,90,252.575V120.001L219.472,199.123z"/>
	<path id="XMLID_1175_" style="fill:#774635;" d="M200,187.223v55.604c-14.666,16.644-36.114,27.174-59.992,27.174H90.811
		C90.768,269.531,90,254.084,90,252.575V120.001L200,187.223z"/>
	<path id="XMLID_1108_" style="fill:#A57A63;" d="M356.424,94.349l-54.148,32.165c-8.016,4.762-16.695,8.304-25.753,10.51
		l-68.89,16.782c-4.48,1.092-7.633,5.105-7.633,9.716v26.479c0,33.137-26.863,60-60,60H60c-33.137,0-60-26.863-60-60v-15.509
		c0-2.856,1.221-5.576,3.356-7.474l63.91-56.81c14.645-13.017,33.557-20.207,53.15-20.207h86.723l45.34-21.25
		c8.442-3.957,17.425-6.635,26.656-7.947l62.354-8.865c10.82-1.538,21.222,4.774,24.852,15.083l0,0
		C369.97,77.33,365.82,88.767,356.424,94.349z"/>
	<path id="XMLID_1106_" style="fill:#D49877;" d="M330.636,87.237l-26.63,13.577c-3.942,2.01-8.13,3.64-12.427,4.838l-24.052,6.706
		c-7.376,2.056-14.291-0.063-15.995-4.903c-1.704-4.84,2.356-10.825,9.393-13.845l22.946-9.846
		c4.099-1.759,8.385-3.113,12.716-4.017l29.261-6.107c5.077-1.06,9.57,0.556,10.734,3.861
		C337.746,80.806,335.257,84.881,330.636,87.237z"/>
	<path id="XMLID_1200_" style="fill:#CEA391;" d="M30,143.335v36.666c0,11.046-8.954,20-20,20H4.334
		c-2.026,0-3.757-1.511-3.977-3.525C0.123,194.349,0,192.19,0,190.001v-15.509c0-2.856,1.221-5.576,3.356-7.474L30,143.335z"/>
	<path id="XMLID_1105_" style="fill:#DDB9A4;" d="M20,156.677v9.991c0,8.75-5.619,16.188-13.446,18.901
		C3.342,186.683,0,184.211,0,180.812v-6.32c0-2.856,1.221-5.577,3.356-7.474l13.315-11.835C17.961,154.036,20,154.951,20,156.677z"
		/>
	<path id="XMLID_2304_" style="fill:#B58772;" d="M115,170.001c-13.807,0-25-11.193-25-25s11.193-25,25-25s25,11.193,25,25
		S128.807,170.001,115,170.001z"/>
	<path id="XMLID_2303_" style="fill:#B58772;" d="M162.895,180.079c-1.061-0.097-2.126,0.165-3.036,0.719l-47.2,28.75
		c-1.801,1.097-2.711,3.206-2.304,5.274c1.702,8.652,9.328,15.178,18.479,15.178H150c16.569,0,30-13.432,30-30v-1.167
		C180,189.016,172.486,180.952,162.895,180.079z"/>
	<path id="XMLID_2301_" style="fill:#8E604C;" d="M35,222.501c0,1.381-1.119,2.5-2.5,2.5c-1.381,0-2.5-1.119-2.5-2.5
		s1.119-2.5,2.5-2.5C33.881,220.001,35,221.12,35,222.501z"/>
	<path id="XMLID_991_" style="fill:#8E604C;" d="M22.5,210.001c-1.381,0-2.5,1.119-2.5,2.5s1.119,2.5,2.5,2.5s2.5-1.119,2.5-2.5
		S23.881,210.001,22.5,210.001z"/>
	<path id="XMLID_1203_" style="fill:#8E604C;" d="M32.5,200.001c-1.381,0-2.5,1.119-2.5,2.5s1.119,2.5,2.5,2.5
		c1.381,0,2.5-1.119,2.5-2.5S33.881,200.001,32.5,200.001z"/>
	<path id="XMLID_2300_" style="fill:#8E604C;" d="M42.5,210.001c-1.381,0-2.5,1.119-2.5,2.5s1.119,2.5,2.5,2.5s2.5-1.119,2.5-2.5
		S43.881,210.001,42.5,210.001z"/>
	<path id="XMLID_924_" style="fill:#492E22;" d="M125,145.001c0,5.523-4.477,10-10,10s-10-4.477-10-10s4.477-10,10-10
		S125,139.478,125,145.001z"/>
	<path id="XMLID_811_" style="fill:#E9D2C2;" d="M125,140.001c0,2.761-2.239,5-5,5s-5-2.239-5-5s2.239-5,5-5S125,137.24,125,140.001
		z"/>
</g>
<g>
</g>
<g>
</g>
<g>
</g>
<g>
</g>
<g>
</g>
<g>
</g>
<g>
</g>
<g>
</g>
<g>
</g>
<g>
</g>
<g>
</g>
<g>
</g>
<g>
</g>
<g>
</g>
<g>
</g>
</svg>
